<?xml version="1.0" standalone="no"?>
<!DOCTYPE svg PUBLIC "-//W3C//DTD SVG 20010904//EN"
 "http://www.w3.org/TR/2001/REC-SVG-20010904/DTD/svg10.dtd">
<svg version="1.0" xmlns="http://www.w3.org/2000/svg"
 width="500.000000pt" height="500.000000pt" viewBox="0 0 500.000000 500.000000"
 preserveAspectRatio="xMidYMid meet">

<g transform="translate(0.000000,500.000000) scale(0.100000,-0.100000)"
fill="#000000" stroke="none">
<path d="M2345 4143 c-73 -10 -244 -57 -314 -87 -271 -114 -484 -313 -616
-575 -50 -99 -100 -257 -115 -362 -16 -107 -8 -343 15 -449 20 -92 80 -289
107 -350 145 -325 299 -573 557 -900 162 -204 492 -560 520 -560 20 0 262 247
402 410 172 201 368 462 425 565 6 11 30 52 54 90 55 89 160 297 198 395 38
96 86 254 107 350 22 104 31 337 16 440 -39 261 -159 500 -345 685 -234 232
-541 358 -864 354 -64 -1 -130 -4 -147 -6z m405 -58 c101 -24 177 -53 273
-101 121 -60 207 -123 302 -218 310 -311 416 -739 296 -1187 -127 -471 -483
-1020 -1018 -1568 l-103 -105 -62 64 c-282 290 -459 502 -642 769 -254 370
-420 746 -456 1035 -47 376 73 729 340 996 173 175 415 297 652 330 91 13 341
4 418 -15z"/>
<path d="M2906 3331 c-4 -5 -6 -106 -5 -223 1 -117 1 -234 0 -260 l-1 -48 -40
0 -41 0 3 -67 c3 -76 -6 -70 105 -72 l43 -1 2 -467 3 -468 117 175 c65 96 147
234 184 305 65 126 68 133 72 217 l4 87 -88 3 -89 3 -3 296 -2 295 -88 80
c-152 140 -170 155 -176 145z"/>
<path d="M2120 2965 l0 -204 -57 -3 -58 -3 -3 -496 -2 -496 52 -70 c81 -108
182 -232 191 -232 4 -1 7 384 7 854 l0 855 -65 0 -65 0 0 -205z"/>
<path d="M2693 3072 l-93 -87 0 -308 0 -307 -75 0 -75 0 0 28 c0 68 -5 72 -91
72 l-79 0 0 -531 0 -531 63 -65 c131 -138 147 -153 157 -153 24 0 378 397 429
481 16 26 17 67 15 496 -2 257 -3 470 -4 473 0 3 -31 4 -70 3 l-70 -2 0 260
c0 142 -3 259 -7 259 -5 -1 -50 -40 -100 -88z"/>
<path d="M2492 2598 l4 -203 29 0 30 0 3 203 2 202 -35 0 -36 0 3 -202z"/>
<path d="M1828 2579 l-118 -59 0 -147 0 -146 41 -76 c52 -94 187 -308 200
-316 5 -4 9 148 9 399 0 223 -3 406 -7 405 -5 0 -61 -27 -125 -60z"/>
</g>
</svg>
